<svg width="26" height="26" viewBox="0 0 26 26" fill="none" xmlns="http://www.w3.org/2000/svg">
<circle cx="13" cy="13" r="13" fill="#FF4C51"/>
<path d="M8.88269 7.4213L13 11.5386L17.096 7.44263C17.1865 7.34633 17.2955 7.2693 17.4165 7.21614C17.5374 7.16299 17.6679 7.13481 17.8 7.1333C18.0829 7.1333 18.3542 7.24568 18.5543 7.44572C18.7543 7.64576 18.8667 7.91707 18.8667 8.19997C18.8692 8.33074 18.8449 8.46065 18.7954 8.58171C18.7459 8.70277 18.6721 8.81243 18.5787 8.90397L14.4294 13L18.5787 17.1493C18.7545 17.3213 18.8576 17.5542 18.8667 17.8C18.8667 18.0829 18.7543 18.3542 18.5543 18.5542C18.3542 18.7543 18.0829 18.8666 17.8 18.8666C17.6641 18.8723 17.5284 18.8496 17.4017 18.8C17.275 18.7504 17.16 18.675 17.064 18.5786L13 14.4613L8.89335 18.568C8.80323 18.6611 8.69555 18.7354 8.57655 18.7866C8.45755 18.8379 8.32958 18.8651 8.20002 18.8666C7.91712 18.8666 7.64581 18.7543 7.44577 18.5542C7.24573 18.3542 7.13335 18.0829 7.13335 17.8C7.13087 17.6692 7.15513 17.5393 7.20465 17.4182C7.25418 17.2972 7.32792 17.1875 7.42135 17.096L11.5707 13L7.42135 8.85063C7.24555 8.67864 7.14246 8.44574 7.13335 8.19997C7.13335 7.91707 7.24573 7.64576 7.44577 7.44572C7.64581 7.24568 7.91712 7.1333 8.20002 7.1333C8.45602 7.1365 8.70135 7.23997 8.88269 7.4213Z" fill="white"/>
</svg>
