<svg width="11" height="12" viewBox="0 0 11 12" fill="none" xmlns="http://www.w3.org/2000/svg">
<path d="M1.63992 0.77L5.49992 4.63L9.33992 0.79C9.42474 0.699717 9.52692 0.627495 9.64033 0.577662C9.75374 0.52783 9.87605 0.501414 9.99992 0.5C10.2651 0.5 10.5195 0.605357 10.707 0.792893C10.8946 0.98043 10.9999 1.23478 10.9999 1.5C11.0023 1.6226 10.9795 1.74439 10.9331 1.85788C10.8866 1.97138 10.8175 2.07419 10.7299 2.16L6.83992 6L10.7299 9.89C10.8947 10.0512 10.9914 10.2696 10.9999 10.5C10.9999 10.7652 10.8946 11.0196 10.707 11.2071C10.5195 11.3946 10.2651 11.5 9.99992 11.5C9.87247 11.5053 9.74532 11.484 9.62654 11.4375C9.50775 11.3911 9.39993 11.3204 9.30992 11.23L5.49992 7.37L1.64992 11.22C1.56542 11.3073 1.46448 11.3769 1.35292 11.425C1.24136 11.4731 1.12138 11.4986 0.999919 11.5C0.734702 11.5 0.480348 11.3946 0.292812 11.2071C0.105275 11.0196 -8.1434e-05 10.7652 -8.1434e-05 10.5C-0.00241293 10.3774 0.020334 10.2556 0.0667635 10.1421C0.113193 10.0286 0.182326 9.92581 0.269919 9.84L4.15992 6L0.269919 2.11C0.105104 1.94876 0.00845818 1.73041 -8.1434e-05 1.5C-8.1434e-05 1.23478 0.105275 0.98043 0.292812 0.792893C0.480348 0.605357 0.734702 0.5 0.999919 0.5C1.23992 0.503 1.46992 0.6 1.63992 0.77Z" fill="#FF4C51"/>
</svg>
