<svg width="9" height="11" viewBox="0 0 9 11" fill="none" xmlns="http://www.w3.org/2000/svg">
<path d="M3.25 8.50016H5.75C6.09375 8.50016 6.375 8.21891 6.375 7.87516V4.75016H7.36875C7.925 4.75016 8.20625 4.07516 7.8125 3.68141L4.94375 0.81266C4.88593 0.754721 4.81725 0.708753 4.74164 0.67739C4.66603 0.646027 4.58498 0.629883 4.50313 0.629883C4.42127 0.629883 4.34022 0.646027 4.26461 0.67739C4.189 0.708753 4.12032 0.754721 4.0625 0.81266L1.19375 3.68141C0.8 4.07516 1.075 4.75016 1.63125 4.75016H2.625V7.87516C2.625 8.21891 2.90625 8.50016 3.25 8.50016ZM0.75 9.75016H8.25C8.59375 9.75016 8.875 10.0314 8.875 10.3752C8.875 10.7189 8.59375 11.0002 8.25 11.0002H0.75C0.40625 11.0002 0.125 10.7189 0.125 10.3752C0.125 10.0314 0.40625 9.75016 0.75 9.75016Z" fill="white"/>
</svg>
