<svg width="70" height="70" viewBox="0 0 70 70" fill="none" xmlns="http://www.w3.org/2000/svg">
<circle cx="35" cy="35" r="34.5" stroke="#79767E"/>
<path d="M27.3333 31.6666H29.9833V39.9999C29.9833 40.9166 30.7333 41.6666 31.6499 41.6666H38.3166C39.2333 41.6666 39.9833 40.9166 39.9833 39.9999V31.6666H42.6333C44.1166 31.6666 44.8666 29.8666 43.8166 28.8166L36.1666 21.1666C36.0124 21.0121 35.8292 20.8895 35.6276 20.8059C35.426 20.7222 35.2099 20.6792 34.9916 20.6792C34.7733 20.6792 34.5572 20.7222 34.3555 20.8059C34.1539 20.8895 33.9708 21.0121 33.8166 21.1666L26.1666 28.8166C25.1166 29.8666 25.8499 31.6666 27.3333 31.6666ZM23.3333 46.6666C23.3333 47.5833 24.0833 48.3333 24.9999 48.3333H44.9999C45.9166 48.3333 46.6666 47.5833 46.6666 46.6666C46.6666 45.7499 45.9166 44.9999 44.9999 44.9999H24.9999C24.0833 44.9999 23.3333 45.7499 23.3333 46.6666Z" fill="#B4B2B7"/>
</svg>
